<?xml version="1.0" encoding="UTF-8"?>
<svg version="1.1" xmlns="http://www.w3.org/2000/svg" width="477" height="313">
<path d="M0 0 C10.085625 -0.12375 10.085625 -0.12375 20.375 -0.25 C22.47665527 -0.28641602 24.57831055 -0.32283203 26.74365234 -0.36035156 C28.4410704 -0.37205244 30.13849982 -0.38224094 31.8359375 -0.390625 C32.6916333 -0.41108887 33.5473291 -0.43155273 34.42895508 -0.45263672 C43.6248025 -0.45785718 51.55738907 2.57243944 58.23828125 8.96875 C64.01875757 15.63360075 65.792519 22.12510646 65.421875 30.88671875 C64.57642045 37.1258602 61.96862545 41.7853275 58.3125 46.8125 C55.85216027 50.17094279 55.85216027 50.17094279 55 54 C55.81222242 56.70554089 57.12103743 58.89378827 59 61 C62.12688428 62.05175552 62.12688428 62.05175552 65 62 C65 58.7 65 55.4 65 52 C65.33 52 65.66 52 66 52 C66.33 34.84 66.66 17.68 67 0 C72.754375 -0.04125 78.50875 -0.0825 84.4375 -0.125 C86.23501709 -0.14320801 88.03253418 -0.16141602 89.88452148 -0.18017578 C91.33837589 -0.18602694 92.79223361 -0.19112101 94.24609375 -0.1953125 C94.97735474 -0.20554443 95.70861572 -0.21577637 96.46203613 -0.22631836 C106.09771162 -0.22950951 116.23793976 1.90241328 123.6875 8.3125 C124.450625 9.199375 125.21375 10.08625 126 11 C126.50402344 11.54914063 127.00804687 12.09828125 127.52734375 12.6640625 C130.9086953 16.41744539 132.62960897 19.25921795 135 24 C135.33 16.08 135.66 8.16 136 0 C142.6 0 149.2 0 156 0 C156.05607422 3.37798828 156.05607422 3.37798828 156.11328125 6.82421875 C156.15954821 9.01531454 156.21076279 11.20624298 156.26245117 13.3972168 C156.29561916 14.91501621 156.32367632 16.43293656 156.34643555 17.95092773 C156.38013278 20.13838019 156.43245204 22.32473264 156.48828125 24.51171875 C156.51446533 25.82615967 156.54064941 27.14060059 156.56762695 28.49487305 C157.1184467 32.96021416 158.60079569 35.54897331 161.6875 38.75 C166.5950607 41.40273551 170.62955071 41.40439487 175.8125 39.875 C179.71172859 37.58133613 181.19963296 35.52852096 182.55053711 31.26074219 C183.1485825 28.2526486 183.22229366 25.33100653 183.31640625 22.265625 C183.35830078 20.97011719 183.40019531 19.67460937 183.44335938 18.33984375 C183.48316671 16.97656524 183.52287906 15.61328394 183.5625 14.25 C183.60572274 12.87108125 183.64933821 11.49217474 183.69335938 10.11328125 C183.79943899 6.74230694 183.90022365 3.37116677 184 0 C190.27 0 196.54 0 203 0 C203.09248149 4.66003933 203.17190971 9.31682043 203.21972656 13.97705078 C203.23968422 15.55789045 203.2668606 17.13865783 203.30175781 18.71923828 C203.55878751 30.67111943 202.72589511 40.229015 195 50 C190.32551485 54.56824685 187.547281 55.54476962 181 58 C180.67 64.93 180.34 71.86 180 79 C173.4 79 166.8 79 160 79 C159.67 72.07 159.34 65.14 159 58 C154.545 56.02 154.545 56.02 150 54 C147.44140625 52.18359375 147.44140625 52.18359375 145.5625 50.4375 C144.60537109 49.56931641 144.60537109 49.56931641 143.62890625 48.68359375 C142 47 142 47 140 44 C139.01 44.99 139.01 44.99 138 46 C138 43.69 138 41.38 138 39 C137.85304688 40.03898437 137.70609375 41.07796875 137.5546875 42.1484375 C135.68120169 54.22604065 132.04170765 64.25128071 122 72 C112.3841811 77.83152888 104.01888889 79.30992974 92.93359375 79.30078125 C91.78133804 79.30506638 90.62908234 79.3093515 89.44190979 79.31376648 C87.0137701 79.31949262 84.58561325 79.32002274 82.1574707 79.31567383 C78.44648036 79.31250766 74.73628291 79.33601709 71.02539062 79.36132812 C68.66145934 79.36360068 66.29752591 79.36430482 63.93359375 79.36328125 C62.82721054 79.372491 61.72082733 79.38170074 60.58091736 79.39118958 C54.14678374 79.35258184 49.44270547 78.92182332 44.34765625 74.59765625 C41.17687282 70.81006388 39.02452854 67.05432382 36.8125 62.625 C34.42294243 58.20361069 34.42294243 58.20361069 30.109375 56.0078125 C27.34050219 55.77352326 24.76393422 55.74010022 22 56 C20.79729036 58.40541929 20.79683337 60.10366591 20.68359375 62.7890625 C20.64169922 63.73007813 20.59980469 64.67109375 20.55664062 65.640625 C20.51732422 66.62546875 20.47800781 67.6103125 20.4375 68.625 C20.39431641 69.61757812 20.35113281 70.61015625 20.30664062 71.6328125 C20.20039053 74.08837033 20.09967545 76.54416651 20 79 C13.4 79 6.8 79 0 79 C0 52.93 0 26.86 0 0 Z M20 17 C20 24.26 20 31.52 20 39 C24.0528125 39.0928125 24.0528125 39.0928125 28.1875 39.1875 C29.02949951 39.21481201 29.87149902 39.24212402 30.73901367 39.27026367 C36.37466348 39.33256195 39.60688579 38.22807185 43.8125 34.3125 C45.89522796 30.25666134 45.5454228 26.01806435 44.375 21.6875 C41.94351015 18.70339882 38.73854094 17.201071 34.91650391 16.7590332 C32.64354217 16.70581922 30.39762461 16.73797691 28.125 16.8125 C24.103125 16.9053125 24.103125 16.9053125 20 17 Z M87 17 C87 31.85 87 46.7 87 62 C100.92385213 62.7396347 100.92385213 62.7396347 111.515625 56.609375 C116.94397773 50.6818634 117.52053152 44.02856526 117.37109375 36.328125 C116.70048082 30.31378586 114.68804491 25.2644425 109.9921875 21.30859375 C101.95473138 16.1035253 97.89638801 17 87 17 Z M136 28 C136 29.65 136 31.3 136 33 C136.33 33 136.66 33 137 33 C137 31.35 137 29.7 137 28 C136.67 28 136.34 28 136 28 Z M53 50 C54 53 54 53 54 53 Z " fill="#212121" transform="translate(126,162)"/>
<path d="M0 0 C1.49274193 -0.01925285 1.49274193 -0.01925285 3.01564026 -0.03889465 C4.10094528 -0.04628159 5.18625031 -0.05366852 6.30444336 -0.0612793 C7.97185829 -0.07338692 7.97185829 -0.07338692 9.67295837 -0.08573914 C12.03439769 -0.09960423 14.39585725 -0.11031546 16.75732422 -0.11816406 C20.35480426 -0.13530987 23.95134959 -0.17916747 27.54858398 -0.22338867 C29.84219701 -0.23352104 32.13581787 -0.24203544 34.42944336 -0.2487793 C35.50057877 -0.26628738 36.57171417 -0.28379547 37.67530823 -0.30183411 C45.19837011 -0.2801976 50.45956751 0.90280855 56.35522461 5.88793945 C60.72586294 11.26913 62.85309739 15.95065032 62.64819336 23.0949707 C61.68454219 29.43603334 57.99273408 34.03393798 53.33178711 38.17700195 C53.92604492 38.40516602 54.52030273 38.63333008 55.13256836 38.8684082 C57.93542784 40.53618427 58.90970083 42.29669153 60.51928711 45.11450195 C61.0284668 45.98977539 61.53764648 46.86504883 62.06225586 47.7668457 C64.60588216 52.5958224 64.82272124 56.83028293 64.33178711 62.17700195 C62.25768441 68.61763666 58.9365251 73.96493318 52.92724609 77.32617188 C47.42746447 79.96106931 41.98268315 79.69686159 35.99194336 79.6027832 C34.82924423 79.59949509 33.6665451 79.59620697 32.46861267 79.59281921 C30.02540439 79.58243892 27.58221995 79.56255851 25.13916016 79.53369141 C21.38226919 79.48936014 17.62601744 79.47221336 13.86889648 79.46020508 C11.49323612 79.44679118 9.11758368 79.43187103 6.74194336 79.4152832 C5.61289078 79.40789627 4.4838382 79.40050934 3.3205719 79.39289856 C1.76776772 79.37364571 1.76776772 79.37364571 0.18359375 79.35400391 C-1.18918983 79.33923759 -1.18918983 79.33923759 -2.58970642 79.32417297 C-4.66821289 79.17700195 -4.66821289 79.17700195 -5.66821289 78.17700195 C-5.76849085 75.77891046 -5.80439965 73.40960697 -5.79760742 71.01098633 C-5.79935974 70.26142166 -5.80111206 69.51185699 -5.80291748 68.73957825 C-5.80733609 66.24994626 -5.80439799 63.76038472 -5.80102539 61.27075195 C-5.80169843 59.54821763 -5.80266845 57.82568341 -5.80392456 56.10314941 C-5.80540155 52.48827208 -5.80324696 48.8734194 -5.79858398 45.25854492 C-5.79288669 40.61433703 -5.7961657 35.97018691 -5.80215645 31.32598114 C-5.80576205 27.76763469 -5.80462348 24.20930205 -5.80202866 20.6509552 C-5.80135938 18.93805433 -5.80218782 17.22515223 -5.80450821 15.51225281 C-5.80703472 13.12247374 -5.80319419 10.73278954 -5.79760742 8.34301758 C-5.79963165 7.62817703 -5.80165588 6.91333649 -5.80374146 6.17683411 C-5.77924669 0.54946744 -5.56685131 0.06229826 0 0 Z M15.33178711 17.17700195 C15.1364575 18.94698876 14.95079829 20.71804475 14.76928711 22.48950195 C14.66487305 23.47563477 14.56045898 24.46176758 14.45288086 25.4777832 C14.16576184 28.27630543 14.16576184 28.27630543 15.33178711 31.17700195 C18.89385433 31.32267602 22.45515262 31.41119391 26.01928711 31.48950195 C27.02668945 31.53139648 28.0340918 31.57329102 29.07202148 31.61645508 C35.22411221 31.74401497 35.22411221 31.74401497 40.53881836 28.8527832 C42.62171301 26.28114946 42.62171301 26.28114946 42.33178711 23.05200195 C41.30348287 20.09562727 40.78029423 19.02849341 38.33178711 17.17700195 C35.8181685 16.76371639 35.8181685 16.76371639 33.00756836 16.8840332 C31.97954102 16.89370117 30.95151367 16.90336914 29.89233398 16.91333008 C28.82047852 16.9384668 27.74862305 16.96360352 26.64428711 16.98950195 C25.56083008 17.00303711 24.47737305 17.01657227 23.36108398 17.03051758 C20.68415306 17.06589552 18.00821873 17.11526007 15.33178711 17.17700195 Z M15.33178711 47.17700195 C14.33069195 50.48771034 14.22822577 53.47784964 14.26928711 56.92700195 C14.27831055 57.9118457 14.28733398 58.89668945 14.29663086 59.91137695 C14.30823242 60.6590332 14.31983398 61.40668945 14.33178711 62.17700195 C18.58155757 62.2931159 22.83092048 62.36422544 27.08178711 62.42700195 C28.28834961 62.46051758 29.49491211 62.4940332 30.73803711 62.52856445 C31.89819336 62.54145508 33.05834961 62.5543457 34.25366211 62.56762695 C35.85612793 62.59904785 35.85612793 62.59904785 37.4909668 62.63110352 C41.0443152 62.06310523 42.1956637 61.02727687 44.33178711 58.17700195 C44.94080939 53.4646572 44.94080939 53.4646572 43.01928711 49.30200195 C39.72511681 47.10588842 36.84242752 47.05815864 33.00756836 47.0793457 C31.46552734 47.08417969 31.46552734 47.08417969 29.89233398 47.08911133 C28.28455078 47.10167969 28.28455078 47.10167969 26.64428711 47.11450195 C25.01910156 47.12126953 25.01910156 47.12126953 23.36108398 47.12817383 C20.68459626 47.13996452 18.00821934 47.15642132 15.33178711 47.17700195 Z " fill="#212121" transform="translate(132.668212890625,67.822998046875)"/>
<path d="M0 0 C11.22 0 22.44 0 34 0 C34.06787455 11.20521829 34.12287315 22.41029923 34.15543652 33.61567688 C34.17106814 38.81922059 34.1922607 44.0226159 34.22631836 49.22607422 C34.25900105 54.2511134 34.27687184 59.27601016 34.28463173 64.30114746 C34.29015925 66.21482585 34.30095311 68.12849677 34.31719017 70.04211426 C34.33908292 72.7300682 34.34196199 75.41743948 34.34057617 78.10546875 C34.351362 78.89022079 34.36214783 79.67497284 34.3732605 80.48350525 C34.33873522 86.703999 33.14263516 92.15964762 29.30859375 97.2421875 C24.23706164 101.66786688 19.78796156 103.78467191 13 104 C6.7965649 103.53336993 1.80180563 102.1158334 -3 98 C-8.19641986 91.11825478 -8.71618871 85.42278266 -8 77 C-5.62611098 66.86688515 0.41476433 57.13904534 8 50 C9.485 49.505 9.485 49.505 11 49 C11.66 48.34 12.32 47.68 13 47 C13.33 47 13.66 47 14 47 C14.0246985 43.04900072 14.04285923 39.09803126 14.05493164 35.14697266 C14.06244036 33.14093449 14.0751447 31.13491798 14.08789062 29.12890625 C14.09111328 27.87207031 14.09433594 26.61523438 14.09765625 25.3203125 C14.10289307 24.15773926 14.10812988 22.99516602 14.11352539 21.79736328 C14.19356283 19.04497808 14.19356283 19.04497808 13 17 C8.71 17 4.42 17 0 17 C0 11.39 0 5.78 0 0 Z M15 65 C10.58637423 70.41672253 8 74.95757751 8 82 C8.78785353 84.4237259 8.78785353 84.4237259 10 86 C12.47266765 85.65555119 12.47266765 85.65555119 15 85 C16.1482685 82.703463 16.11561175 81.41686833 16.09765625 78.8671875 C16.09443359 78.06152344 16.09121094 77.25585938 16.08789062 76.42578125 C16.07951172 75.58402344 16.07113281 74.74226563 16.0625 73.875 C16.05798828 73.02550781 16.05347656 72.17601562 16.04882812 71.30078125 C16.03702874 69.20049091 16.01909306 67.1002367 16 65 C15.67 65 15.34 65 15 65 Z " fill="#202020" transform="translate(90,68)"/>
<path d="M0 0 C1.49274193 -0.01925285 1.49274193 -0.01925285 3.01564026 -0.03889465 C4.10094528 -0.04628159 5.18625031 -0.05366852 6.30444336 -0.0612793 C7.97185829 -0.07338692 7.97185829 -0.07338692 9.67295837 -0.08573914 C12.03439769 -0.09960423 14.39585725 -0.11031546 16.75732422 -0.11816406 C20.35480426 -0.13530987 23.95134959 -0.17916747 27.54858398 -0.22338867 C29.84219701 -0.23352104 32.13581787 -0.24203544 34.42944336 -0.2487793 C35.50057877 -0.26628738 36.57171417 -0.28379547 37.67530823 -0.30183411 C45.23248887 -0.28009947 50.43721617 0.94014793 56.39038086 5.88793945 C59.44950353 9.57968523 61.08923581 12.20470034 61.33178711 17.17700195 C60.67178711 17.17700195 60.01178711 17.17700195 59.33178711 17.17700195 C59.06366211 16.24887695 58.79553711 15.32075195 58.51928711 14.36450195 C57.39468676 11.34583786 56.62472138 10.26148765 54.33178711 8.17700195 C54.33178711 7.51700195 54.33178711 6.85700195 54.33178711 6.17700195 C53.69370117 5.97204102 53.05561523 5.76708008 52.39819336 5.5559082 C51.5719043 5.28649414 50.74561523 5.01708008 49.89428711 4.73950195 C49.07057617 4.47266602 48.24686523 4.20583008 47.39819336 3.9309082 C45.33178711 3.17700195 45.33178711 3.17700195 44.33178711 2.17700195 C42.82652797 2.11323492 41.31820513 2.11987986 39.81201172 2.15527344 C38.83760132 2.17569702 37.86319092 2.19612061 36.85925293 2.21716309 C35.82796265 2.24387085 34.79667236 2.27057861 33.73413086 2.2980957 C32.79154419 2.31876099 31.84895752 2.33942627 30.87780762 2.36071777 C27.34150542 2.43975001 23.8054064 2.52767072 20.26928711 2.61450195 C12.36991211 2.80012695 4.47053711 2.98575195 -3.66821289 3.17700195 C-3.99821289 27.59700195 -4.32821289 52.01700195 -4.66821289 77.17700195 C4.28303711 77.09450195 13.23428711 77.01200195 22.45678711 76.92700195 C25.2735498 76.91121094 28.0903125 76.89541992 30.99243164 76.87915039 C33.23317517 76.84977705 35.47390032 76.81895063 37.71459961 76.78637695 C38.87145264 76.78524902 40.02830566 76.78412109 41.22021484 76.78295898 C47.52862559 76.67091877 51.55900567 76.47321503 56.33178711 72.17700195 C58.08050799 70.02548582 59.17455196 67.68985543 60.33178711 65.17700195 C60.78553711 64.22825195 61.23928711 63.27950195 61.70678711 62.30200195 C62.94525819 56.10964653 60.42032146 49.99506193 58.33178711 44.17700195 C62.04518161 47.519057 64.01302417 50.20747356 64.55444336 55.2512207 C64.82050933 62.06482306 63.02079453 66.71587685 59.14428711 72.36450195 C53.21182502 78.29696405 47.65605411 79.6329107 39.37037659 79.65583801 C37.69805214 79.62957588 37.69805214 79.62957588 35.99194336 79.6027832 C34.82924423 79.59949509 33.6665451 79.59620697 32.46861267 79.59281921 C30.02540439 79.58243892 27.58221995 79.56255851 25.13916016 79.53369141 C21.38226919 79.48936014 17.62601744 79.47221336 13.86889648 79.46020508 C11.49323612 79.44679118 9.11758368 79.43187103 6.74194336 79.4152832 C5.61289078 79.40789627 4.4838382 79.40050934 3.3205719 79.39289856 C1.76776772 79.37364571 1.76776772 79.37364571 0.18359375 79.35400391 C-1.18918983 79.33923759 -1.18918983 79.33923759 -2.58970642 79.32417297 C-4.66821289 79.17700195 -4.66821289 79.17700195 -5.66821289 78.17700195 C-5.76849085 75.77891046 -5.80439965 73.40960697 -5.79760742 71.01098633 C-5.79935974 70.26142166 -5.80111206 69.51185699 -5.80291748 68.73957825 C-5.80733609 66.24994626 -5.80439799 63.76038472 -5.80102539 61.27075195 C-5.80169843 59.54821763 -5.80266845 57.82568341 -5.80392456 56.10314941 C-5.80540155 52.48827208 -5.80324696 48.8734194 -5.79858398 45.25854492 C-5.79288669 40.61433703 -5.7961657 35.97018691 -5.80215645 31.32598114 C-5.80576205 27.76763469 -5.80462348 24.20930205 -5.80202866 20.6509552 C-5.80135938 18.93805433 -5.80218782 17.22515223 -5.80450821 15.51225281 C-5.80703472 13.12247374 -5.80319419 10.73278954 -5.79760742 8.34301758 C-5.79963165 7.62817703 -5.80165588 6.91333649 -5.80374146 6.17683411 C-5.77924669 0.54946744 -5.56685131 0.06229826 0 0 Z " fill="#0B0B0B" transform="translate(132.668212890625,67.822998046875)"/>
<path d="M0 0 C13.86 0 27.72 0 42 0 C30.05940631 5.97029685 15.3499896 2 2 2 C2 26.75 2 51.5 2 77 C7.28 77 12.56 77 18 77 C18 70.07 18 63.14 18 56 C23.48183035 54.17272322 27.35714995 53.14763833 33 54 C36.89777285 56.63363031 38.98769279 60.82632578 41 65 C40.60546875 67.21875 40.60546875 67.21875 40 69 C39.62230469 68.14535156 39.24460938 67.29070312 38.85546875 66.41015625 C35.84279479 59.79853989 35.84279479 59.79853989 30.0859375 55.98046875 C27.33178747 55.77052708 24.74809267 55.74158984 22 56 C20.79729036 58.40541929 20.79683337 60.10366591 20.68359375 62.7890625 C20.64169922 63.73007813 20.59980469 64.67109375 20.55664062 65.640625 C20.51732422 66.62546875 20.47800781 67.6103125 20.4375 68.625 C20.39431641 69.61757812 20.35113281 70.61015625 20.30664062 71.6328125 C20.20039053 74.08837033 20.09967545 76.54416651 20 79 C13.4 79 6.8 79 0 79 C0 52.93 0 26.86 0 0 Z " fill="#111111" transform="translate(126,162)"/>
<path d="M0 0 C1.77811971 3.28268253 3.04213316 6.69601335 4.31640625 10.1953125 C4.98817249 12.06083307 4.98817249 12.06083307 6 14 C5.34 14.99 4.68 15.98 4 17 C3.67 17 3.34 17 3 17 C2.34 17.33 1.68 17.66 1 18 C1 15.69 1 13.38 1 11 C0.85304688 12.03898438 0.70609375 13.07796875 0.5546875 14.1484375 C-1.31879831 26.22604065 -4.95829235 36.25128071 -15 44 C-24.72907203 49.90021142 -33.06461269 51.29836284 -44.27734375 51.1953125 C-45.4438295 51.1924826 -46.61031525 51.18965271 -47.81214905 51.18673706 C-51.52070576 51.17558388 -55.22901685 51.15048786 -58.9375 51.125 C-61.45898088 51.11496393 -63.98046555 51.10583918 -66.50195312 51.09765625 C-72.6680519 51.07566044 -78.83400839 51.04223118 -85 51 C-82.00499003 49.28185362 -79.83114133 48.74441354 -76.39013672 48.71289062 C-75.48174042 48.69947632 -74.57334412 48.68606201 -73.63742065 48.67224121 C-72.66136871 48.66696411 -71.68531677 48.66168701 -70.6796875 48.65625 C-69.66584991 48.6416272 -68.65201233 48.62700439 -67.60745239 48.61193848 C-64.36334182 48.56545562 -61.11929062 48.53127839 -57.875 48.5 C-53.62217844 48.45859296 -49.36976825 48.40474058 -45.1171875 48.34375 C-44.15328094 48.3384729 -43.18937439 48.3331958 -42.19625854 48.32775879 C-35.9124281 48.23685791 -30.11757582 47.40044141 -24 46 C-22.33418217 45.66245026 -20.66772304 45.32800724 -19 45 C-19 44.34 -19 43.68 -19 43 C-18.42378906 42.76667969 -17.84757812 42.53335938 -17.25390625 42.29296875 C-10.87053066 38.63110164 -6.2083932 30.88499057 -4 24 C-3.61250787 21.67504723 -3.27017161 19.34148732 -3 17 C-2.505 15.515 -2.505 15.515 -2 14 C-1.80386563 12.54533674 -1.63963394 11.08616948 -1.5 9.625 C-1.1650928 6.36629978 -0.72257639 3.19998118 0 0 Z " fill="#0F0F0F" transform="translate(263,190)"/>
<path d="M0 0 C5.8575 -0.061875 11.715 -0.12375 17.75 -0.1875 C19.59303711 -0.21481201 21.43607422 -0.24212402 23.33496094 -0.27026367 C24.80142563 -0.27902835 26.26789763 -0.28667233 27.734375 -0.29296875 C28.86963623 -0.3159906 28.86963623 -0.3159906 30.02783203 -0.33947754 C34.30170615 -0.34159892 36.91072661 -0.08571432 40 3 C37.66705225 3.04241723 35.33297433 3.04092937 33 3 C32.505 2.505 32.505 2.505 32 2 C29.78144736 1.91216458 27.56011504 1.89305391 25.33984375 1.90234375 C24.67537735 1.9037587 24.01091095 1.90517365 23.3263092 1.90663147 C21.19666101 1.91224482 19.06711661 1.92479946 16.9375 1.9375 C15.49674631 1.94251329 14.05599097 1.94707649 12.61523438 1.95117188 C9.07678898 1.96221855 5.53840461 1.97949208 2 2 C2.00222061 2.76199203 2.00444122 3.52398407 2.00672913 4.30906677 C2.02673157 11.47551712 2.04197388 18.64195401 2.05181217 25.80842495 C2.05704008 29.49314498 2.06413605 33.17784203 2.07543945 36.86254883 C2.08627162 40.41570831 2.09227753 43.96884563 2.09487724 47.52202034 C2.0967309 48.88045666 2.10035038 50.23889171 2.10573006 51.59731865 C2.11294475 53.49382223 2.11340809 55.39034793 2.11352539 57.28686523 C2.115746 58.36830307 2.11796661 59.44974091 2.12025452 60.56394958 C2 63 2 63 1 64 C-0.68608966 64.07205511 -2.37500659 64.08386068 -4.0625 64.0625 C-5.44115234 64.04896484 -5.44115234 64.04896484 -6.84765625 64.03515625 C-7.55792969 64.02355469 -8.26820313 64.01195312 -9 64 C-8.67 63.01 -8.34 62.02 -8 61 C-6.02 61.33 -4.04 61.66 -2 62 C-2 58.7 -2 55.4 -2 52 C-1.67 52 -1.34 52 -1 52 C-0.67 34.84 -0.34 17.68 0 0 Z " fill="#121212" transform="translate(193,162)"/>
<path d="M0 0 C6.27 0 12.54 0 19 0 C19.09248149 4.66003933 19.17190971 9.31682043 19.21972656 13.97705078 C19.23968422 15.55789045 19.2668606 17.13865783 19.30175781 18.71923828 C19.49901322 27.89161489 19.57191691 35.72467577 15 44 C14.67 44 14.34 44 14 44 C13.74641827 39.4355288 13.74641827 39.4355288 14.99560547 37.29003906 C16.43131326 34.01659738 16.22358926 31.1722468 16.1953125 27.609375 C16.19106766 26.55245453 16.19106766 26.55245453 16.18673706 25.47418213 C16.17557801 23.2326124 16.15048193 20.99144814 16.125 18.75 C16.11496464 17.22656829 16.10583976 15.70313029 16.09765625 14.1796875 C16.07565291 10.45299414 16.04115272 6.72653667 16 3 C14.73542969 3.01740234 14.73542969 3.01740234 13.4453125 3.03515625 C12.34960938 3.04417969 11.25390625 3.05320313 10.125 3.0625 C9.03445313 3.07410156 7.94390625 3.08570313 6.8203125 3.09765625 C4 3 4 3 2 2 C2.01571045 2.8470752 2.0314209 3.69415039 2.04760742 4.56689453 C2.0989557 7.73142204 2.13645672 10.89573608 2.16479492 14.06054688 C2.17981428 15.42617816 2.20023608 16.79176176 2.22631836 18.15722656 C2.26300137 20.12803905 2.27818551 22.09921408 2.29296875 24.0703125 C2.3086792 25.25383301 2.32438965 26.43735352 2.34057617 27.65673828 C1.96248673 31.36824856 0.85288176 33.79004798 -1 37 C-1.99 37 -2.98 37 -4 37 C-3.51917969 35.989375 -3.03835938 34.97875 -2.54296875 33.9375 C-0.13635061 27.51985163 -0.42855797 20.77115334 -0.3125 14 C-0.27926849 12.63929121 -0.24477359 11.27861267 -0.20898438 9.91796875 C-0.12692786 6.61226359 -0.06177722 3.30614631 0 0 Z " fill="#121212" transform="translate(310,162)"/>
<path d="M0 0 C3 1 3 1 4.5625 3.3125 C7.59579571 6.65690296 10.46656393 7.62352259 14.66015625 9.10546875 C17 10 17 10 20 12 C20.34057617 14.06298828 20.34057617 14.06298828 20.29296875 16.5703125 C20.28330078 17.46621094 20.27363281 18.36210937 20.26367188 19.28515625 C20.23853516 20.22230469 20.21339844 21.15945312 20.1875 22.125 C20.16719727 23.54232422 20.16719727 23.54232422 20.14648438 24.98828125 C20.11106799 27.32576253 20.0572598 29.66295178 20 32 C25.28 32 30.56 32 36 32 C36 25.4 36 18.8 36 12 C38.64 10.68 41.28 9.36 44 8 C44.94875 7.401875 45.8975 6.80375 46.875 6.1875 C47.57625 5.795625 48.2775 5.40375 49 5 C49.66 5.33 50.32 5.66 51 6 C47.26634033 10.51150543 45.23125932 10.66327776 39 13 C38.67 19.93 38.34 26.86 38 34 C31.4 34 24.8 34 18 34 C17.67 27.07 17.34 20.14 17 13 C12.545 11.02 12.545 11.02 8 9 C5.37109375 7.1484375 5.37109375 7.1484375 3.4375 5.375 C2.77621094 4.78460938 2.11492187 4.19421875 1.43359375 3.5859375 C0 2 0 2 0 0 Z " fill="#0E0E0E" transform="translate(268,207)"/>
<path d="M0 0 C7.1165744 -0.10176424 14.2329598 -0.17161829 21.35009766 -0.21972656 C23.7691143 -0.23979065 26.18808276 -0.26704843 28.60693359 -0.30175781 C32.09224368 -0.35050341 35.57691016 -0.37302164 39.0625 -0.390625 C40.13677246 -0.41127014 41.21104492 -0.43191528 42.31787109 -0.45318604 C49.89608921 -0.4554297 55.08851659 0.74908969 61.05859375 5.7109375 C64.11771642 9.40268327 65.7574487 12.02769839 66 17 C65.34 17 64.68 17 64 17 C63.731875 16.071875 63.46375 15.14375 63.1875 14.1875 C62.06289965 11.1688359 61.29293427 10.0844857 59 8 C59 7.34 59 6.68 59 6 C58.36191406 5.79503906 57.72382813 5.59007813 57.06640625 5.37890625 C56.24011719 5.10949219 55.41382813 4.84007813 54.5625 4.5625 C53.73878906 4.29566406 52.91507813 4.02882813 52.06640625 3.75390625 C50 3 50 3 49 2 C47.46411744 1.93618289 45.92522849 1.94289755 44.38842773 1.97827148 C43.40748642 1.99836777 42.4265451 2.01846405 41.4158783 2.03916931 C40.3492244 2.06620438 39.2825705 2.09323944 38.18359375 2.12109375 C36.55430687 2.15651024 36.55430687 2.15651024 34.8921051 2.19264221 C31.40711091 2.26949741 27.92232684 2.35342726 24.4375 2.4375 C22.08139065 2.49069882 19.7252709 2.54343934 17.36914062 2.59570312 C11.57929576 2.72514194 5.7896082 2.86039662 0 3 C0 2.01 0 1.02 0 0 Z " fill="#131313" transform="translate(128,68)"/>
<path d="M0 0 C0.9075 0.33 1.815 0.66 2.75 1 C2.75 1.66 2.75 2.32 2.75 3 C3.74 3 4.73 3 5.75 3 C5.75 3.66 5.75 4.32 5.75 5 C6.74 5 7.73 5 8.75 5 C12.75 11.5 12.75 11.5 12.75 16 C13.41 16 14.07 16 14.75 16 C15.50195822 30.87206266 15.50195822 30.87206266 10.75 38 C9.76 38.495 9.76 38.495 8.75 39 C9.4925 37.1746875 9.4925 37.1746875 10.25 35.3125 C12.82302267 27.44498837 13.11451753 19.2082137 9.875 11.5 C6.54364356 5.7930802 2.96366008 4.16430857 -3.25 2 C-10.18 1.505 -10.18 1.505 -17.25 1 C-17.25 13.21 -17.25 25.42 -17.25 38 C-17.58 38 -17.91 38 -18.25 38 C-18.41767195 33.07059672 -18.57822547 28.14103251 -18.73217773 23.21118164 C-18.78555698 21.5340348 -18.84088316 19.85694876 -18.89819336 18.17993164 C-18.98021822 15.76982734 -19.05524581 13.35959139 -19.12890625 10.94921875 C-19.15594131 10.19912033 -19.18297638 9.44902191 -19.21083069 8.67619324 C-19.30259138 5.47767446 -19.27105583 3.06316748 -18.25 0 C-13.19007398 -2.52996301 -5.32581487 -1.54197104 0 0 Z " fill="#0F0F0F" transform="translate(230.25,178)"/>
<path d="M0 0 C2.18928876 1.6223782 3.09118676 2.60538677 3.98828125 5.1875 C4.59083686 9.48524602 4.56552258 13.91354419 3.25 18.0625 C1.25 19.25 1.25 19.25 -0.75 20.0625 C-1.08 21.0525 -1.41 22.0425 -1.75 23.0625 C-5.21827695 24.21859232 -7.9715584 24.19522398 -11.625 24.1875 C-12.83929688 24.19007813 -14.05359375 24.19265625 -15.3046875 24.1953125 C-18.26119095 24.08134298 -20.88191815 23.74953101 -23.75 23.0625 C-23.75 22.7325 -23.75 22.4025 -23.75 22.0625 C-22.50863281 22.02511719 -21.26726562 21.98773438 -19.98828125 21.94921875 C-18.34632489 21.8835405 -16.70439913 21.8170938 -15.0625 21.75 C-14.24587891 21.72744141 -13.42925781 21.70488281 -12.58789062 21.68164062 C-7.87910394 21.47193757 -4.55530039 21.12565767 -0.75 18.0625 C1.7522731 14.30909034 1.50336731 11.38721783 1.25 7.0625 C1.20875 6.27875 1.1675 5.495 1.125 4.6875 C0.31845232 2.78419435 0.31845232 2.78419435 -2.25 2 C-6.4190934 0.88327855 -10.33118908 0.61277454 -14.625 0.4375 C-17.30625 0.31375 -19.9875 0.19 -22.75 0.0625 C-22.75 6.9925 -22.75 13.9225 -22.75 21.0625 C-25 16.5625 -25 16.5625 -24.9453125 12.953125 C-24.93886719 12.19902344 -24.93242187 11.44492188 -24.92578125 10.66796875 C-24.90902344 9.89066406 -24.89226562 9.11335937 -24.875 8.3125 C-24.86597656 7.51972656 -24.85695312 6.72695312 -24.84765625 5.91015625 C-24.82417012 3.96080719 -24.78830137 2.01161425 -24.75 0.0625 C-16.73469865 -2.45428441 -7.78772744 -4.06926299 0 0 Z " fill="#101010" transform="translate(168.75,178.9375)"/>
<path d="M0 0 C3.87485635 -0.08751413 7.74945643 -0.14056435 11.625 -0.1875 C13.26662109 -0.22520508 13.26662109 -0.22520508 14.94140625 -0.26367188 C25.35239773 -0.35831725 25.35239773 -0.35831725 30 3 C32 6.375 32 6.375 33 10 C32.1875 12.9375 32.1875 12.9375 31 15 C30.34 15 29.68 15 29 15 C29.05800781 14.38511719 29.11601562 13.77023438 29.17578125 13.13671875 C29.24345703 11.92435547 29.24345703 11.92435547 29.3125 10.6875 C29.37050781 9.88699219 29.42851562 9.08648437 29.48828125 8.26171875 C29.21506886 5.78649116 29.21506886 5.78649116 26.81445312 4.390625 C23.78501824 2.89377723 21.83431033 2.58196398 18.48046875 2.48828125 C17.45888672 2.45283203 16.43730469 2.41738281 15.38476562 2.38085938 C13.80211914 2.34702148 13.80211914 2.34702148 12.1875 2.3125 C11.11306641 2.27833984 10.03863281 2.24417969 8.93164062 2.20898438 C6.28812187 2.12674157 3.64407826 2.06168807 1 2 C1 6.62 1 11.24 1 16 C4.96 16.33 8.92 16.66 13 17 C13 17.33 13 17.66 13 18 C11.1746875 18.2165625 11.1746875 18.2165625 9.3125 18.4375 C6.84467865 18.73451213 4.54902437 19.107842 2.125 19.6875 C1.42375 19.790625 0.7225 19.89375 0 20 C-2 18 -2 18 -2.265625 14.8828125 C-2.26046875 13.64273438 -2.2553125 12.40265625 -2.25 11.125 C-2.25515625 9.89007813 -2.2603125 8.65515625 -2.265625 7.3828125 C-2.01471271 4.18737071 -1.49744503 2.72350603 0 0 Z " fill="#101010" transform="translate(147,113)"/>
<path d="M0 0 C11.22 0 22.44 0 34 0 C32 2 32 2 29.01904297 2.22705078 C27.77268066 2.21657715 26.52631836 2.20610352 25.2421875 2.1953125 C24.57913605 2.1924826 23.91608459 2.18965271 23.23294067 2.18673706 C21.11344417 2.17553435 18.99436896 2.15043051 16.875 2.125 C15.43880818 2.11497028 14.00260975 2.10584441 12.56640625 2.09765625 C9.04397762 2.07729539 5.52246083 2.0381494 2 2 C2 6.29 2 10.58 2 15 C3.65 14.34 5.3 13.68 7 13 C7.99 14.32 8.98 15.64 10 17 C6.7 17 3.4 17 0 17 C0 11.39 0 5.78 0 0 Z " fill="#141414" transform="translate(90,68)"/>
<path d="M0 0 C0.99 0.33 1.98 0.66 3 1 C3 8.26 3 15.52 3 23 C2.34 23 1.68 23 1 23 C0.67 23.66 0.34 24.32 0 25 C-1.65 25 -3.3 25 -5 25 C-5 24.34 -5 23.68 -5 23 C-4.360625 22.87625 -3.72125 22.7525 -3.0625 22.625 C-2.381875 22.41875 -1.70125 22.2125 -1 22 C0.65497356 18.69005287 0.10084335 15.00877 0.0625 11.375 C0.05798828 10.57320312 0.05347656 9.77140625 0.04882812 8.9453125 C0.03703168 6.96350994 0.01909605 4.98174567 0 3 C-3.6516245 8.24049929 -5.76648984 12.72031193 -7 19 C-7.66 19 -8.32 19 -9 19 C-8.82754656 12.22728292 -7.37415678 7.27174387 -3 2 C-2.01 1.34 -1.02 0.68 0 0 Z " fill="#121212" transform="translate(105,131)"/>
<path d="M0 0 C6.6 0 13.2 0 20 0 C20.03738281 2.25199219 20.07476562 4.50398437 20.11328125 6.82421875 C20.15954821 9.01531454 20.21076279 11.20624298 20.26245117 13.3972168 C20.29561916 14.91501621 20.32367632 16.43293656 20.34643555 17.95092773 C20.38013278 20.13838019 20.43245204 22.32473264 20.48828125 24.51171875 C20.51446533 25.82615967 20.54064941 27.14060059 20.56762695 28.49487305 C21.02225395 32.18040653 21.85957483 34.01783828 24 37 C24.66 37.99 25.32 38.98 26 40 C24.13964844 39.69726562 24.13964844 39.69726562 22 39 C16.98910868 31.921678 17.52761654 24.91635878 17.75 16.5 C17.76804687 15.200625 17.78609375 13.90125 17.8046875 12.5625 C17.85157385 9.37422849 17.91719107 6.187507 18 3 C14.57767028 1.85922343 11.91326783 1.90184883 8.3125 1.9375 C7.13300781 1.94652344 5.95351563 1.95554688 4.73828125 1.96484375 C3.38283203 1.98224609 3.38283203 1.98224609 2 2 C1.67 3.32 1.34 4.64 1 6 C0.67 6 0.34 6 0 6 C0 4.02 0 2.04 0 0 Z " fill="#0E0E0E" transform="translate(262,162)"/>
<path d="M0 0 C0.66 0 1.32 0 2 0 C2.350625 0.886875 2.70125 1.77375 3.0625 2.6875 C5.75513526 7.29103771 8.85590495 10.07065137 14.03515625 11.6015625 C20.47698691 12.60700249 26.67966433 11.29401119 33 10 C29.47396013 14.1156028 25.22136957 14.57904093 20 15 C13.80941079 14.57400045 8.78109343 13.09808009 4 9 C0 3.84210526 0 3.84210526 0 0 Z " fill="#101010" transform="translate(83,157)"/>
<path d="M0 0 C0.33 0 0.66 0 1 0 C1 22.77 1 45.54 1 69 C0.67 69 0.34 69 0 69 C0 46.23 0 23.46 0 0 Z " fill="#000000" transform="translate(125,78)"/>
<path d="M0 0 C1.9375 1.0625 1.9375 1.0625 4 3 C5.06995896 6.85185224 5.370011 9.07497251 3.875 12.8125 C1.59950015 15.46724982 0.36288426 16.03725684 -3 17 C-5.95768797 17.09283412 -8.86596629 16.87198522 -11.8125 16.625 C-12.60076172 16.56828125 -13.38902344 16.5115625 -14.20117188 16.453125 C-16.13489961 16.31249026 -18.06758595 16.15766112 -20 16 C-20 15.67 -20 15.34 -20 15 C-18.74703125 14.97421875 -17.4940625 14.9484375 -16.203125 14.921875 C-14.55204877 14.86558831 -12.90100845 14.8082411 -11.25 14.75 C-10.0125 14.72873047 -10.0125 14.72873047 -8.75 14.70703125 C-3.74823206 14.50617175 -3.74823206 14.50617175 0.5859375 12.14453125 C2.29866924 10.00129776 2.29866924 10.00129776 1.875 6.9375 C1.11181389 3.84912783 1.11181389 3.84912783 -1 1 C-0.67 0.67 -0.34 0.34 0 0 Z " fill="#101010" transform="translate(172,84)"/>
<path d="M0 0 C0.33 0 0.66 0 1 0 C1 2.31 1 4.62 1 7 C13.04369352 6.6990681 13.04369352 6.6990681 24 2 C24.66 1.67 25.32 1.34 26 1 C25.67 1.99 25.34 2.98 25 4 C24.34 4 23.68 4 23 4 C23 4.66 23 5.32 23 6 C16.35365577 9.89054296 8.51115851 10.11962105 1 9 C-1.00390625 7.14453125 -1.00390625 7.14453125 -2 5 C-1.1875 2.25 -1.1875 2.25 0 0 Z " fill="#121212" transform="translate(212,217)"/>
<path d="M0 0 C7.92 0 15.84 0 24 0 C24.33 0.66 24.66 1.32 25 2 C17.41 2 9.82 2 2 2 C2 3.65 2 5.3 2 7 C0 4 0 4 0 0 Z " fill="#121212" transform="translate(146,83)"/>
<path d="M0 0 C0.66 0.66 1.32 1.32 2 2 C-1.75 5 -1.75 5 -4 5 C-4 5.66 -4 6.32 -4 7 C-5.3125 8.625 -5.3125 8.625 -7 10 C-7.99 10 -8.98 10 -10 10 C-10.2475 10.5775 -10.495 11.155 -10.75 11.75 C-12.16683317 14.3002997 -13.87627537 16.01785701 -16 18 C-16 13.87384209 -14.29014263 12.52141645 -11.6875 9.375 C-10.88699219 8.39273438 -10.08648437 7.41046875 -9.26171875 6.3984375 C-7 4 -7 4 -4 3 C-3.34 2.34 -2.68 1.68 -2 1 C-1.34 0.67 -0.68 0.34 0 0 Z " fill="#121212" transform="translate(105,114)"/>
<path d="M0 0 C0.33 0 0.66 0 1 0 C1.33 4.29 1.66 8.58 2 13 C5.96 13.33 9.92 13.66 14 14 C14 14.33 14 14.66 14 15 C12.1746875 15.2165625 12.1746875 15.2165625 10.3125 15.4375 C7.84467865 15.73451213 5.54902437 16.107842 3.125 16.6875 C2.42375 16.790625 1.7225 16.89375 1 17 C-1 15 -1 15 -1.23046875 11.77734375 C-1.20919922 9.87662109 -1.20919922 9.87662109 -1.1875 7.9375 C-1.18105469 6.66777344 -1.17460937 5.39804688 -1.16796875 4.08984375 C-1 1 -1 1 0 0 Z " fill="#171717" transform="translate(146,116)"/>
<path d="M0 0 C16.17 0 32.34 0 49 0 C49 0.33 49 0.66 49 1 C32.83 1 16.66 1 0 1 C0 0.67 0 0.34 0 0 Z " fill="#000000" transform="translate(128,66)"/>
<path d="M0 0 C6.6 0 13.2 0 20 0 C20 0.66 20 1.32 20 2 C14.06 2 8.12 2 2 2 C1.67 3.32 1.34 4.64 1 6 C0.67 6 0.34 6 0 6 C0 4.02 0 2.04 0 0 Z " fill="#151515" transform="translate(262,162)"/>
<path d="M0 0 C5.74520444 1.00028113 10.03660968 5.32760762 13.40625 9.9140625 C15.100716 12.75834471 16 14.6546825 16 18 C12.96130589 16.48065294 12.35589694 14.01995228 11 11 C11 10.34 11 9.68 11 9 C10.34 9 9.68 9 9 9 C9 8.34 9 7.68 9 7 C8.34 7 7.68 7 7 7 C7 6.34 7 5.68 7 5 C6.21625 4.731875 5.4325 4.46375 4.625 4.1875 C2 3 2 3 0 0 Z " fill="#111111" transform="translate(174,165)"/>
<path d="M0 0 C0.66 0.33 1.32 0.66 2 1 C1.85445391 6.67629755 -0.81131284 9.68987123 -4.30859375 13.8515625 C-5.87361322 15.83946252 -6.96514136 17.70146976 -8 20 C-8.75 17.75 -8.75 17.75 -9 15 C-7.3125 13.125 -7.3125 13.125 -5 11 C-2.69748793 7.59420089 -0.65740538 4.10878364 0 0 Z " fill="#101010" transform="translate(188,195)"/>
<path d="M0 0 C0.66 0.66 1.32 1.32 2 2 C1.690625 2.928125 1.38125 3.85625 1.0625 4.8125 C-0.18898625 9.07455457 -0.41542795 13.3231028 -0.65625 17.7421875 C-0.7696875 18.48726562 -0.883125 19.23234375 -1 20 C-1.66 20.33 -2.32 20.66 -3 21 C-3.34855655 13.37048445 -3.0017506 7.07555499 0 0 Z " fill="#101010" transform="translate(85,136)"/>
<path d="M0 0 C4.54295147 3.56946187 6.4309029 8.5832765 8 14 C8.109375 16.81640625 8.109375 16.81640625 8 19 C5.64121025 16.64121025 5.12246584 14.83334239 4.0625 11.6875 C2.74909184 7.78981505 1.21800421 4.46918607 -1 1 C-0.67 0.67 -0.34 0.34 0 0 Z " fill="#101010" transform="translate(254,176)"/>
<path d="M0 0 C10.89 0 21.78 0 33 0 C33 0.33 33 0.66 33 1 C22.11 1 11.22 1 0 1 C0 0.67 0 0.34 0 0 Z " fill="#000000" transform="translate(90,66)"/>
<path d="M0 0 C0.33 0 0.66 0 1 0 C1 10.23 1 20.46 1 31 C0.67 31 0.34 31 0 31 C0 20.77 0 10.54 0 0 Z " fill="#000000" transform="translate(330,163)"/>
<path d="M0 0 C0 0.99 0 1.98 0 3 C-7.28571429 6.57142857 -7.28571429 6.57142857 -12 5 C-11.67 4.34 -11.34 3.68 -11 3 C-9.00718243 2.74286225 -7.01170139 2.49163848 -5.0078125 2.34375 C-2.69017751 2.08691645 -2.69017751 2.08691645 0 0 Z " fill="#101010" transform="translate(305,200)"/>
<path d="M0 0 C0.33 0 0.66 0 1 0 C1 8.58 1 17.16 1 26 C0.67 26 0.34 26 0 26 C0 17.42 0 8.84 0 0 Z " fill="#000000" transform="translate(124,195)"/>
<path d="M0 0 C4.56756196 0.8783773 6.52067674 1.385483 9.4375 5.125 C10.2109375 6.548125 10.2109375 6.548125 11 8 C6.89160936 6.54997977 3.49655387 4.6020866 0 2 C0 1.34 0 0.68 0 0 Z " fill="#0E0E0E" transform="translate(241,166)"/>
<path d="M0 0 C2.86453858 3.41016497 4.34703566 6.90694544 6 11 C2.82880497 9.90648447 1.99216457 8.9873012 0.1875 6.0625 C-1 3 -1 3 0 0 Z " fill="#111111" transform="translate(178,212)"/>
<path d="M0 0 C0.33 0 0.66 0 1 0 C1 7.59 1 15.18 1 23 C0.67 23 0.34 23 0 23 C0 15.41 0 7.82 0 0 Z " fill="#000000" transform="translate(283,170)"/>
<path d="M0 0 C0.33 0 0.66 0 1 0 C1 6.6 1 13.2 1 20 C-1.08229108 16.87656337 -1.23770457 16.46147078 -0.9765625 12.98828125 C-0.925 12.23095703 -0.8734375 11.47363281 -0.8203125 10.69335938 C-0.75585938 9.90767578 -0.69140625 9.12199219 -0.625 8.3125 C-0.56828125 7.51521484 -0.5115625 6.71792969 -0.453125 5.89648438 C-0.31183972 3.93026419 -0.15720094 1.96501176 0 0 Z " fill="#000000" transform="translate(191,163)"/>
<path d="M0 0 C0.66 0 1.32 0 2 0 C1.55530671 5.03985731 -0.71343362 7.37634988 -4 11 C-4 7.80389448 -3.45328458 6.58282374 -2 3.8125 C-1.62875 3.09707031 -1.2575 2.38164062 -0.875 1.64453125 C-0.441875 0.83048828 -0.441875 0.83048828 0 0 Z " fill="#111111" transform="translate(121,156)"/>
<path d="M0 0 C0.33 0 0.66 0 1 0 C1.16682272 4.92127034 1.24828052 8.50343896 -1 13 C-1.66 12.34 -2.32 11.68 -3 11 C-2.690625 9.9275 -2.38125 8.855 -2.0625 7.75 C-1.33187904 5.17133778 -0.62517096 2.60487898 0 0 Z " fill="#0F0F0F" transform="translate(194,85)"/>
<path d="M0 0 C3.875 1.75 3.875 1.75 5 4 C2.36 4 -0.28 4 -3 4 C-3 3.34 -3 2.68 -3 2 C-2.01 1.34 -1.02 0.68 0 0 Z " fill="#191919" transform="translate(95,81)"/>
<path d="M0 0 C6.27 0 12.54 0 19 0 C19 0.33 19 0.66 19 1 C12.73 1 6.46 1 0 1 C0 0.67 0 0.34 0 0 Z " fill="#000000" transform="translate(129,148)"/>
<path d="M0 0 C0.66 0.33 1.32 0.66 2 1 C1.75 3.875 1.75 3.875 1 7 C-0.98 7.99 -0.98 7.99 -3 9 C-2.01 6.03 -1.02 3.06 0 0 Z " fill="#0E0E0E" transform="translate(309,191)"/>
<path d="M0 0 C5.61 0 11.22 0 17 0 C17 0.33 17 0.66 17 1 C11.39 1 5.78 1 0 1 C0 0.67 0 0.34 0 0 Z " fill="#000000" transform="translate(288,242)"/>
<path d="M0 0 C5.28 0 10.56 0 16 0 C16 0.33 16 0.66 16 1 C8.08 1.495 8.08 1.495 0 2 C0 1.34 0 0.68 0 0 Z " fill="#000000" transform="translate(147,180)"/>
<path d="M0 0 C0.33 0.99 0.66 1.98 1 3 C0.34 3.66 -0.32 4.32 -1 5 C-3 3 -3 3 -4 1 C-4.66 0.67 -5.32 0.34 -6 0 C-3 -1 -3 -1 0 0 Z " fill="#121212" transform="translate(107,84)"/>
<path d="M0 0 C4.95 0 9.9 0 15 0 C15 0.33 15 0.66 15 1 C10.05 1 5.1 1 0 1 C0 0.67 0 0.34 0 0 Z " fill="#000000" transform="translate(163,148)"/>
<path d="M0 0 C3.63 0 7.26 0 11 0 C11 0.33 11 0.66 11 1 C7.37 1 3.74 1 0 1 C0 0.67 0 0.34 0 0 Z " fill="#000000" transform="translate(127,242)"/>
<path d="M0 0 C0.33 0 0.66 0 1 0 C1 2.31 1 4.62 1 7 C0.34 6.67 -0.32 6.34 -1 6 C-0.67 4.02 -0.34 2.04 0 0 Z " fill="#000000" transform="translate(191,196)"/>
<path d="M0 0 C2.31 0 4.62 0 7 0 C7 0.33 7 0.66 7 1 C4.69 1 2.38 1 0 1 C0 0.67 0 0.34 0 0 Z " fill="#000000" transform="translate(194,160)"/>
<path d="M0 0 C1.98 0 3.96 0 6 0 C6 0.33 6 0.66 6 1 C4.02 1 2.04 1 0 1 C0 0.67 0 0.34 0 0 Z " fill="#000000" transform="translate(139,242)"/>
<path d="M0 0 C0.66 0 1.32 0 2 0 C1.67 1.32 1.34 2.64 1 4 C0.67 2.68 0.34 1.36 0 0 Z " fill="#000000" transform="translate(259,180)"/>
<path d="M0 0 C1.98 0 3.96 0 6 0 C6 0.33 6 0.66 6 1 C4.02 1 2.04 1 0 1 C0 0.67 0 0.34 0 0 Z " fill="#000000" transform="translate(156,160)"/>
<path d="M0 0 C1.65 0 3.3 0 5 0 C5 0.33 5 0.66 5 1 C3.35 1 1.7 1 0 1 C0 0.67 0 0.34 0 0 Z " fill="#000000" transform="translate(220,242)"/>
<path d="M0 0 C0.33 0 0.66 0 1 0 C1 1.65 1 3.3 1 5 C0.67 5 0.34 5 0 5 C0 3.35 0 1.7 0 0 Z " fill="#000000" transform="translate(124,235)"/>
<path d="M0 0 C1.65 0 3.3 0 5 0 C5 0.33 5 0.66 5 1 C3.35 1 1.7 1 0 1 C0 0.67 0 0.34 0 0 Z " fill="#000000" transform="translate(221,180)"/>
<path d="M0 0 C0.33 0 0.66 0 1 0 C1 1.65 1 3.3 1 5 C0.67 5 0.34 5 0 5 C0 3.35 0 1.7 0 0 Z " fill="#000000" transform="translate(124,172)"/>
<path d="M0 0 C1.65 0 3.3 0 5 0 C5 0.33 5 0.66 5 1 C3.35 1 1.7 1 0 1 C0 0.67 0 0.34 0 0 Z " fill="#000000" transform="translate(128,160)"/>
<path d="M0 0 C0.33 0.66 0.66 1.32 1 2 C-0.32 1.67 -1.64 1.34 -3 1 C-2.01 0.67 -1.02 0.34 0 0 Z " fill="#000000" transform="translate(103,151)"/>
<path d="M0 0 C0.33 1.32 0.66 2.64 1 4 C0.34 3.34 -0.32 2.68 -1 2 C-0.67 1.34 -0.34 0.68 0 0 Z " fill="#000000" transform="translate(104,135)"/>
<path d="M0 0 C0.33 0 0.66 0 1 0 C1 1.65 1 3.3 1 5 C0.67 5 0.34 5 0 5 C0 3.35 0 1.7 0 0 Z " fill="#000000" transform="translate(88,69)"/>
<path d="M0 0 C4 1 4 1 4 1 Z " fill="#000000" transform="translate(181,242)"/>
<path d="M0 0 C0.99 0.33 1.98 0.66 3 1 C2.01 1.33 1.02 1.66 0 2 C0 1.34 0 0.68 0 0 Z " fill="#000000" transform="translate(214,180)"/>
<path d="M0 0 C1 4 1 4 1 4 Z " fill="#000000" transform="translate(173,90)"/>
<path d="" fill="#000000" transform="translate(0,0)"/>
<path d="M0 0 C0.99 0.495 0.99 0.495 2 1 C1.01 1.495 1.01 1.495 0 2 C0 1.34 0 0.68 0 0 Z " fill="#000000" transform="translate(307,220)"/>
<path d="M0 0 C0.66 0 1.32 0 2 0 C1.67 0.66 1.34 1.32 1 2 C0.67 1.34 0.34 0.68 0 0 Z " fill="#000000" transform="translate(283,220)"/>
<path d="M0 0 C3 1 3 1 3 1 Z " fill="#000000" transform="translate(147,199)"/>
<path d="M0 0 C3 1 3 1 3 1 Z " fill="#000000" transform="translate(325,160)"/>
<path d="M0 0 C3 1 3 1 3 1 Z " fill="#000000" transform="translate(311,160)"/>
<path d="M0 0 C3 1 3 1 3 1 Z " fill="#000000" transform="translate(263,160)"/>
<path d="" fill="#000000" transform="translate(0,0)"/>
<path d="" fill="#000000" transform="translate(0,0)"/>
<path d="" fill="#000000" transform="translate(0,0)"/>
<path d="M0 0 C2 1 2 1 2 1 Z " fill="#000000" transform="translate(235,240)"/>
<path d="" fill="#000000" transform="translate(0,0)"/>
<path d="" fill="#000000" transform="translate(0,0)"/>
<path d="M0 0 C2 1 2 1 2 1 Z " fill="#000000" transform="translate(160,199)"/>
<path d="M0 0 C2 1 2 1 2 1 Z " fill="#000000" transform="translate(164,198)"/>
<path d="" fill="#000000" transform="translate(0,0)"/>
<path d="" fill="#000000" transform="translate(0,0)"/>
<path d="" fill="#000000" transform="translate(0,0)"/>
<path d="" fill="#000000" transform="translate(0,0)"/>
<path d="" fill="#000000" transform="translate(0,0)"/>
<path d="" fill="#000000" transform="translate(0,0)"/>
<path d="" fill="#000000" transform="translate(0,0)"/>
<path d="" fill="#000000" transform="translate(0,0)"/>
<path d="" fill="#000000" transform="translate(0,0)"/>
<path d="" fill="#000000" transform="translate(0,0)"/>
<path d="" fill="#000000" transform="translate(0,0)"/>
<path d="" fill="#000000" transform="translate(0,0)"/>
<path d="" fill="#000000" transform="translate(0,0)"/>
<path d="M0 0 C2 1 2 1 2 1 Z " fill="#000000" transform="translate(168,97)"/>
<path d="" fill="#000000" transform="translate(0,0)"/>
<path d="" fill="#000000" transform="translate(0,0)"/>
<path d="" fill="#000000" transform="translate(0,0)"/>
<path d="" fill="#000000" transform="translate(0,0)"/>
<path d="" fill="#000000" transform="translate(0,0)"/>
<path d="" fill="#000000" transform="translate(0,0)"/>
<path d="" fill="#000000" transform="translate(0,0)"/>
<path d="" fill="#000000" transform="translate(0,0)"/>
<path d="" fill="#000000" transform="translate(0,0)"/>
<path d="" fill="#000000" transform="translate(0,0)"/>
<path d="" fill="#000000" transform="translate(0,0)"/>
<path d="" fill="#000000" transform="translate(0,0)"/>
<path d="" fill="#000000" transform="translate(0,0)"/>
<path d="" fill="#000000" transform="translate(0,0)"/>
<path d="" fill="#000000" transform="translate(0,0)"/>
<path d="" fill="#000000" transform="translate(0,0)"/>
<path d="" fill="#000000" transform="translate(0,0)"/>
<path d="" fill="#000000" transform="translate(0,0)"/>
<path d="" fill="#000000" transform="translate(0,0)"/>
<path d="" fill="#000000" transform="translate(0,0)"/>
<path d="" fill="#000000" transform="translate(0,0)"/>
<path d="" fill="#000000" transform="translate(0,0)"/>
<path d="" fill="#000000" transform="translate(0,0)"/>
<path d="" fill="#000000" transform="translate(0,0)"/>
<path d="" fill="#000000" transform="translate(0,0)"/>
<path d="" fill="#000000" transform="translate(0,0)"/>
<path d="" fill="#000000" transform="translate(0,0)"/>
<path d="" fill="#000000" transform="translate(0,0)"/>
<path d="" fill="#000000" transform="translate(0,0)"/>
<path d="" fill="#000000" transform="translate(0,0)"/>
<path d="" fill="#000000" transform="translate(0,0)"/>
<path d="" fill="#000000" transform="translate(0,0)"/>
<path d="" fill="#000000" transform="translate(0,0)"/>
<path d="" fill="#000000" transform="translate(0,0)"/>
<path d="" fill="#000000" transform="translate(0,0)"/>
<path d="" fill="#000000" transform="translate(0,0)"/>
<path d="" fill="#000000" transform="translate(0,0)"/>
<path d="" fill="#000000" transform="translate(0,0)"/>
<path d="" fill="#000000" transform="translate(0,0)"/>
<path d="" fill="#000000" transform="translate(0,0)"/>
<path d="" fill="#000000" transform="translate(0,0)"/>
<path d="" fill="#000000" transform="translate(0,0)"/>
<path d="" fill="#000000" transform="translate(0,0)"/>
<path d="" fill="#000000" transform="translate(0,0)"/>
<path d="" fill="#000000" transform="translate(0,0)"/>
<path d="" fill="#000000" transform="translate(0,0)"/>
<path d="" fill="#000000" transform="translate(0,0)"/>
<path d="" fill="#000000" transform="translate(0,0)"/>
<path d="" fill="#000000" transform="translate(0,0)"/>
<path d="" fill="#000000" transform="translate(0,0)"/>
<path d="" fill="#000000" transform="translate(0,0)"/>
<path d="" fill="#000000" transform="translate(0,0)"/>
<path d="" fill="#000000" transform="translate(0,0)"/>
<path d="" fill="#000000" transform="translate(0,0)"/>
<path d="" fill="#000000" transform="translate(0,0)"/>
<path d="" fill="#000000" transform="translate(0,0)"/>
<path d="" fill="#000000" transform="translate(0,0)"/>
<path d="" fill="#000000" transform="translate(0,0)"/>
<path d="" fill="#000000" transform="translate(0,0)"/>
<path d="" fill="#000000" transform="translate(0,0)"/>
<path d="" fill="#000000" transform="translate(0,0)"/>
<path d="" fill="#000000" transform="translate(0,0)"/>
<path d="" fill="#000000" transform="translate(0,0)"/>
<path d="" fill="#000000" transform="translate(0,0)"/>
<path d="" fill="#000000" transform="translate(0,0)"/>
<path d="" fill="#000000" transform="translate(0,0)"/>
<path d="" fill="#000000" transform="translate(0,0)"/>
<path d="" fill="#000000" transform="translate(0,0)"/>
<path d="" fill="#000000" transform="translate(0,0)"/>
<path d="" fill="#000000" transform="translate(0,0)"/>
<path d="" fill="#000000" transform="translate(0,0)"/>
<path d="" fill="#000000" transform="translate(0,0)"/>
<path d="" fill="#000000" transform="translate(0,0)"/>
<path d="" fill="#000000" transform="translate(0,0)"/>
<path d="" fill="#000000" transform="translate(0,0)"/>
<path d="" fill="#000000" transform="translate(0,0)"/>
<path d="" fill="#000000" transform="translate(0,0)"/>
<path d="" fill="#000000" transform="translate(0,0)"/>
<path d="" fill="#000000" transform="translate(0,0)"/>
<path d="" fill="#000000" transform="translate(0,0)"/>
<path d="" fill="#000000" transform="translate(0,0)"/>
<path d="" fill="#000000" transform="translate(0,0)"/>
<path d="" fill="#000000" transform="translate(0,0)"/>
<path d="" fill="#000000" transform="translate(0,0)"/>
<path d="" fill="#000000" transform="translate(0,0)"/>
<path d="" fill="#000000" transform="translate(0,0)"/>
<path d="" fill="#000000" transform="translate(0,0)"/>
<path d="" fill="#000000" transform="translate(0,0)"/>
<path d="" fill="#000000" transform="translate(0,0)"/>
<path d="" fill="#000000" transform="translate(0,0)"/>
<path d="" fill="#000000" transform="translate(0,0)"/>
<path d="" fill="#000000" transform="translate(0,0)"/>
<path d="" fill="#000000" transform="translate(0,0)"/>
<path d="" fill="#000000" transform="translate(0,0)"/>
<path d="" fill="#000000" transform="translate(0,0)"/>
<path d="" fill="#000000" transform="translate(0,0)"/>
<path d="" fill="#000000" transform="translate(0,0)"/>
<path d="" fill="#000000" transform="translate(0,0)"/>
<path d="" fill="#000000" transform="translate(0,0)"/>
<path d="" fill="#000000" transform="translate(0,0)"/>
<path d="" fill="#000000" transform="translate(0,0)"/>
<path d="" fill="#000000" transform="translate(0,0)"/>
<path d="" fill="#000000" transform="translate(0,0)"/>
<path d="" fill="#000000" transform="translate(0,0)"/>
<path d="" fill="#000000" transform="translate(0,0)"/>
<path d="" fill="#000000" transform="translate(0,0)"/>
<path d="" fill="#000000" transform="translate(0,0)"/>
</svg>
